<svg width="16" height="16" viewBox="0 0 16 16" fill="none" xmlns="http://www.w3.org/2000/svg">
<g clip-path="url(#clip0_298_1647)">
<path d="M15 2.33301H1C0.734784 2.33301 0.48043 2.43836 0.292893 2.6259C0.105357 2.81344 0 3.06779 0 3.33301L0 12.6663C0 12.9316 0.105357 13.1859 0.292893 13.3734C0.48043 13.561 0.734784 13.6663 1 13.6663H15C15.2652 13.6663 15.5196 13.561 15.7071 13.3734C15.8946 13.1859 16 12.9316 16 12.6663V3.33301C16 3.06779 15.8946 2.81344 15.7071 2.6259C15.5196 2.43836 15.2652 2.33301 15 2.33301ZM14.7867 2.99967L8 8.24634L1.21333 2.99967H14.7867ZM0.666667 12.5297V3.41967L5.80333 7.38967L0.666667 12.5297ZM1.13667 12.9997L6.33333 7.80301L7.79333 8.93301C7.85162 8.97788 7.92311 9.00221 7.99667 9.00221C8.07022 9.00221 8.14171 8.97788 8.2 8.93301L9.66667 7.80301L14.8633 12.9997H1.13667ZM15.3333 12.5297L10.1967 7.38967L15.3333 3.41967V12.5297Z" fill="#00A3E4"/>
</g>
<defs>
<clipPath id="clip0_298_1647">
<rect width="16" height="16" fill="white"/>
</clipPath>
</defs>
</svg>
