<svg width="16" height="16" viewBox="0 0 16 16" fill="none" xmlns="http://www.w3.org/2000/svg">
<path d="M15.9965 3.0385C15.408 3.3 14.776 3.4765 14.1115 3.555C14.789 3.149 15.3095 2.506 15.555 1.74C14.9205 2.1155 14.2185 2.3895 13.471 2.536C12.872 1.8985 12.019 1.5 11.0745 1.5C9.26199 1.5 7.79349 2.969 7.79349 4.7815C7.79349 5.0385 7.82199 5.2895 7.87799 5.5295C5.15049 5.3925 2.73249 4.086 1.11349 2.1005C0.831488 2.5855 0.669488 3.149 0.669488 3.7505C0.669488 4.8895 1.24899 5.8935 2.12899 6.4825C1.59149 6.465 1.08549 6.318 0.642988 6.072C0.642488 6.0855 0.642488 6.1 0.642488 6.113C0.642488 7.7035 1.77349 9.03 3.27499 9.3315C2.99999 9.406 2.70999 9.4465 2.41049 9.4465C2.19849 9.4465 1.99349 9.426 1.79349 9.388C2.21049 10.691 3.42299 11.64 4.85849 11.667C3.73599 12.547 2.32099 13.0725 0.783488 13.0725C0.518488 13.0725 0.256988 13.057 0.000488281 13.0265C1.45249 13.9565 3.17749 14.5 5.03099 14.5C11.067 14.5 14.3685 9.4995 14.3685 5.1625C14.3685 5.0205 14.3645 4.8785 14.3585 4.7375C15 4.275 15.556 3.6975 15.9965 3.0385Z" fill="#55ACEE"/>
</svg>
